<svg id="Group_7250" data-name="Group 7250" xmlns="http://www.w3.org/2000/svg" width="16.015" height="14.627" viewBox="0 0 16.015 14.627">
  <path id="Path_435" data-name="Path 435" d="M240.432,81.383h.522a.349.349,0,0,0,0-.7h-.522a.349.349,0,0,0,0,.7Z" transform="translate(-229.641 -77.888)" fill="#805537"/>
  <path id="Path_436" data-name="Path 436" d="M15.942,17.068a.693.693,0,0,0-.626-.384H.7a.726.726,0,0,0-.626.384.7.7,0,0,0,.07.734l6.142,7.758v5.05a.686.686,0,0,0,.365.612.717.717,0,0,0,.331.087.675.675,0,0,0,.4-.122l1.931-1.346a1.069,1.069,0,0,0,.435-.856V25.543L15.872,17.8A.7.7,0,0,0,15.942,17.068ZM9.121,25.211a.376.376,0,0,0-.07.21v3.547a.374.374,0,0,1-.139.3L6.981,30.611v-5.19a.318.318,0,0,0-.139-.28L2.91,20.179H9.226a.349.349,0,0,0,0-.7H2.37L.7,17.383H15.316Z" transform="translate(0 -16.684)" fill="#805537"/>
</svg>
