<svg xmlns="http://www.w3.org/2000/svg" width="18.962" height="23.406" viewBox="0 0 18.962 23.406">
  <g id="Group_75" data-name="Group 75" transform="translate(0.5 0.501)">
    <g id="Group_41" data-name="Group 41" transform="translate(0 0)">
      <path id="Path_415" data-name="Path 415" d="M16.592,14.952a1.443,1.443,0,0,1-.626-1.186V12.694H15.3v1.072a2.117,2.117,0,0,0,.91,1.737A2.508,2.508,0,0,1,17.3,17.569v.792H.665v-.792A2.514,2.514,0,0,1,1.75,15.5a2.111,2.111,0,0,0,.91-1.737V8.31a6.353,6.353,0,0,1,5.4-6.253l.284-.044V1.125a.556.556,0,0,1,1.111,0V2l.293.035A6.284,6.284,0,0,1,13.2,3.6l.442-.494a6.956,6.956,0,0,0-3.527-1.689V1.121a1.221,1.221,0,1,0-2.442,0v.324A6.983,6.983,0,0,0,2,8.305v5.456a1.432,1.432,0,0,1-.626,1.186A3.187,3.187,0,0,0,0,17.564v1.461H4.695a4.324,4.324,0,0,0,8.392,0h4.874V17.569A3.16,3.16,0,0,0,16.592,14.952Zm-7.7,6.69a3.66,3.66,0,0,1-3.509-2.617H12.4A3.66,3.66,0,0,1,8.9,21.642Z" transform="translate(0 0.1)" fill="none" stroke="#696969" stroke-width="1"/>
    </g>
  </g>
</svg>
