<svg xmlns="http://www.w3.org/2000/svg" width="16" height="16" viewBox="0 0 16 16">
  <g id="Group_5496" data-name="Group 5496" transform="translate(0 0)">
    <g id="Group_5495" data-name="Group 5495" transform="translate(0 0)">
      <path id="Path_3392" data-name="Path 3392" d="M15.588,6.975l-2.4-2.4V1.407a.469.469,0,0,0-.469-.469H10.844a.469.469,0,0,0-.469.469v.355L9.025.413a1.405,1.405,0,0,0-1.987,0L.412,6.975A1.407,1.407,0,0,0,1.875,9.3v6.236A.469.469,0,0,0,2.344,16H13.656a.469.469,0,0,0,.469-.469V9.3a1.406,1.406,0,0,0,1.463-2.321Zm-4.275-5.1h.937V3.637L11.312,2.7ZM9.437,15.063H6.625V11.251H9.437Zm3.75,0H10.375V10.782a.469.469,0,0,0-.469-.469H6.156a.469.469,0,0,0-.469.469v4.281H2.813V8.556L8.029,3.394l5.158,5.158ZM14.925,8.3a.468.468,0,0,1-.663,0l-5.9-5.9a.469.469,0,0,0-.661,0L1.738,8.3a.469.469,0,0,1-.664-.661L7.7,1.076a.468.468,0,0,1,.663,0l6.562,6.562A.469.469,0,0,1,14.925,8.3Z" transform="translate(0 -0.001)" fill="#484848"/>
    </g>
  </g>
</svg>
