<svg xmlns="http://www.w3.org/2000/svg" width="36" height="36" viewBox="0 0 36 36">
  <g id="Path_9779" data-name="Path 9779" transform="translate(-66)" fill="#fff">
    <path d="M83.726,0h.549A17.864,17.864,0,0,1,102,18,17.864,17.864,0,0,1,84.274,36h-.549A17.864,17.864,0,0,1,66,18,17.864,17.864,0,0,1,83.726,0Z" stroke="none"/>
    <path d="M 83.72551727294922 1 C 79.26087951660156 1 75.06266021728516 2.766368865966797 71.90421295166016 5.973730087280273 C 68.74167633056641 9.185230255126953 67 13.45623970031738 67 18 C 67 22.54376029968262 68.74167633056641 26.81476974487305 71.90421295166016 30.02626991271973 C 75.06266021728516 33.2336311340332 79.26087951660156 35 83.72551727294922 35 L 84.27448272705078 35 C 88.73912048339844 35 92.93733978271484 33.2336311340332 96.09580230712891 30.02626991271973 C 99.25832366943359 26.81478118896484 101 22.54376029968262 101 18 C 101 13.45623970031738 99.25832366943359 9.185220718383789 96.09580230712891 5.973730087280273 C 92.93733978271484 2.766368865966797 88.73912048339844 1 84.27448272705078 1 L 83.72551727294922 1 M 83.72551727294922 0 L 84.27448272705078 0 C 94.06401062011719 0 102 8.058870315551758 102 18 C 102 27.94112968444824 94.06401062011719 36 84.27448272705078 36 L 83.72551727294922 36 C 73.93599700927734 36 66 27.94112968444824 66 18 C 66 8.058870315551758 73.93599700927734 0 83.72551727294922 0 Z" stroke="none" fill="rgba(72,72,72,0.31)"/>
  </g>
</svg>
