<svg xmlns="http://www.w3.org/2000/svg" width="11" height="12.511" viewBox="0 0 11 12.511">
  <g id="sort" transform="translate(0 0)">
    <g id="Group_588" data-name="Group 588">
      <path id="Path_477" data-name="Path 477" d="M29.476,10.955a.567.567,0,0,0,.572-.559V.561a.562.562,0,0,0-.315-.5.583.583,0,0,0-.6.056L25.4,2.852a.545.545,0,0,0-.114.782.575.575,0,0,0,.8.112L28.9,1.679V10.4A.567.567,0,0,0,29.476,10.955Z" transform="translate(-25.165 0)" fill="#646464"/>
      <path id="Path_478" data-name="Path 478" d="M247.361,86.771a.567.567,0,0,0-.572.559v9.74a.572.572,0,0,0,.315.5.642.642,0,0,0,.257.056.58.58,0,0,0,.343-.112l3.737-2.691a.555.555,0,0,0,.124-.782.586.586,0,0,0-.8-.121l-2.831,2.039V87.33A.567.567,0,0,0,247.361,86.771Z" transform="translate(-240.674 -85.118)" fill="#646464"/>
    </g>
  </g>
</svg>
