<svg xmlns="http://www.w3.org/2000/svg" width="14.092" height="12.918" viewBox="0 0 14.092 12.918">
  <g id="synchronize" transform="translate(0 -21.324)" opacity="0.872">
    <g id="Group_7154" data-name="Group 7154" transform="translate(0 21.324)">
      <g id="Group_7153" data-name="Group 7153" transform="translate(0 0)">
        <path id="Path_9787" data-name="Path 9787" d="M1.174,27.783A3.52,3.52,0,0,1,4.7,24.26h3.28l-.759.759a.587.587,0,0,0,.83.83L9.81,24.088h0c.014-.014.026-.028.039-.043l.016-.021L9.883,24l.016-.026.014-.024.013-.027.012-.025c0-.009.006-.018.01-.026s.007-.018.01-.028,0-.018.007-.027.005-.019.007-.029,0-.021,0-.031,0-.017,0-.026a.591.591,0,0,0,0-.116c0-.009,0-.017,0-.026s0-.021,0-.031,0-.019-.007-.029,0-.018-.007-.027-.006-.019-.01-.028-.006-.018-.01-.026l-.012-.025L9.912,23.4,9.9,23.372l-.016-.026-.019-.025L9.849,23.3c-.012-.015-.025-.029-.039-.043h0L8.048,21.5a.587.587,0,0,0-.83.83l.759.759H4.691A4.694,4.694,0,0,0,0,27.783a4.36,4.36,0,0,0,1.283,3.088.587.587,0,1,0,.831-.83A3.186,3.186,0,0,1,1.174,27.783Z" transform="translate(0 -21.324)" fill="#805537"/>
        <path id="Path_9788" data-name="Path 9788" d="M159.3,140.8a4.36,4.36,0,0,0-1.283-3.088.587.587,0,0,0-.831.83,3.186,3.186,0,0,1,.939,2.258,3.52,3.52,0,0,1-3.523,3.523h-3.28l.759-.759a.587.587,0,0,0-.83-.83l-1.762,1.762h0a.576.576,0,0,0-.039.043l-.016.021-.019.025-.016.026-.014.024-.013.027-.012.025c0,.009-.006.017-.01.026s-.007.019-.01.028,0,.018-.007.026-.005.019-.007.029,0,.021,0,.031,0,.017,0,.026,0,.038,0,.057h0c0,.019,0,.038,0,.057s0,.017,0,.026,0,.021,0,.031,0,.019.007.029,0,.018.007.027.006.019.01.028.006.018.01.026.008.017.012.026l.013.027.014.024.016.026.019.025.016.021c.012.015.025.029.039.043l1.762,1.762a.587.587,0,0,0,.83-.83l-.759-.759h3.286A4.694,4.694,0,0,0,159.3,140.8Z" transform="translate(-145.212 -134.339)" fill="#805537"/>
      </g>
    </g>
  </g>
</svg>
